# xmcd
#
# Track frame offsets: 
#        150
#        10340
#        19997
#        38637
#        49058
#        57808
#        84443
#        115237
#        128552
#        147447
#        163521
#        181632
#        205946
#        229088
#        239193
#        256485
#        282295
#        296065
#        313094
#        326601
#        336171
#
# Disc length: 4633 seconds
#
# Revision: 0
# Processed by: cddbd v1.5.1PL2 Copyright (c) Steve Scherf et al.
# Submitted via: ExactAudioCopy v0.95a5
#
DISCID=32121715
DTITLE=Yardbirds with Sonny Boy Williamson - Compleat Collection
DYEAR=2002
DGENRE=Blues
TTITLE0=boom boom
TTITLE1=honey in your lips
TTITLE2=who do you love
TTITLE3=let it rock
TTITLE4=talkin' about you
TTITLE5=i wish you would
TTITLE6=smokestack lightning
TTITLE7=you can't judge a book by looking at the cover
TTITLE8=take it easy, baby
TTITLE9=bye bye bird
TTITLE10=mr. downchild
TTITLE11=the river rhine
TTITLE12=23 hours too long
TTITLE13=a lost case
TTITLE14=pontiac blues
TTITLE15=take it easy, baby (reprise)
TTITLE16=out on the waterfront
TTITLE17=i don't care no more
TTITLE18=western arizona
TTITLE19=a certain girl
TTITLE20=goodmorning little schoolgirl
EXTD=
EXTT0=
EXTT1=
EXTT2=
EXTT3=
EXTT4=
EXTT5=
EXTT6=
EXTT7=
EXTT8=
EXTT9=
EXTT10=
EXTT11=
EXTT12=
EXTT13=
EXTT14=
EXTT15=
EXTT16=
EXTT17=
EXTT18=
EXTT19=
EXTT20=
PLAYORDER=
